# xmcd
#
# Track frame offsets: 
#        150
#        14688
#        37104
#        52241
#        78877
#        98073
#        116142
#        134017
#        160237
#        175386
#
# Disc length: 2562 seconds
#
# Revision: 0
# Processed by: cddbd v1.5.2PL0 Copyright (c) Steve Scherf et al.
# Submitted via: ExactAudioCopy v1.3
#
DISCID=8d0a000a
DTITLE=Dudley Harris - All the Money's Gone
DYEAR=2019
DGENRE=Blues
TTITLE0=Tired Baby
TTITLE1=Jack Rabbit
TTITLE2=Love Me
TTITLE3=Nobody Knows
TTITLE4=Hard Times
TTITLE5=Cinnamon Roll
TTITLE6=King Snake
TTITLE7=Feel so Bad (Tell Jody Riley)
TTITLE8=Go Get My Gun
TTITLE9=Sweet Honey Bee
EXTD=
EXTT0=
EXTT1=
EXTT2=
EXTT3=
EXTT4=
EXTT5=
EXTT6=
EXTT7=
EXTT8=
EXTT9=
PLAYORDER=
